<?xml version="1.0" encoding="UTF-8"?>
<svg width="800" height="600" viewBox="0 0 800 600" fill="none" xmlns="http://www.w3.org/2000/svg">
  <defs>
    <linearGradient id="greenGlow" x1="0%" y1="0%" x2="100%" y2="100%">
      <stop offset="0%" style="stop-color:#22c55e;stop-opacity:0.3"/>
      <stop offset="100%" style="stop-color:#22c55e;stop-opacity:0.1"/>
    </linearGradient>
  </defs>
  
  <!-- Background -->
  <rect width="800" height="600" fill="#022c22"/>
  
  <!-- Main Content -->
  <g fill="url(#greenGlow)" stroke="#22c55e" stroke-width="2">
    <!-- E-waste bin -->
    <path d="M200 200 h400 v300 h-400 z M250 150 h300 v50 h-300 z"/>
    
    <!-- Recycling symbol -->
    <path d="M350 100 l50 -30 l50 30 M300 150 l50 -30 M450 150 l-50 -30"/>
    
    <!-- Electronics -->
    <g>
      <!-- Computer -->
      <rect x="280" y="250" width="240" height="160" rx="10"/>
      <rect x="300" y="270" width="200" height="120" rx="5"/>
      
      <!-- Mobile devices -->
      <rect x="250" y="430" width="60" height="40" rx="5"/>
      <rect x="330" y="430" width="80" height="40" rx="5"/>
      <rect x="430" y="430" width="120" height="40" rx="5"/>
      
      <!-- Circuit patterns -->
      <path d="M320 300 h160 M320 320 h160 M320 340 h160" 
            stroke="#22c55e" stroke-width="1" fill="none"/>
    </g>
    
    <!-- Decorative elements -->
    <circle cx="400" cy="350" r="50" fill="none" stroke="#22c55e" stroke-width="1"/>
    <circle cx="400" cy="350" r="40" fill="none" stroke="#22c55e" stroke-width="1"/>
  </g>
  
  <!-- Glow effects -->
  <circle cx="400" cy="350" r="60" fill="url(#greenGlow)" opacity="0.2"/>
</svg> 